<svg xmlns="http://www.w3.org/2000/svg" viewBox="0 0 900 700" preserveAspectRatio="xMidYMid slice">
  <defs>
    <filter id="softBlur" x="-20%" y="-20%" width="140%" height="140%">
      <feGaussianBlur stdDeviation="22" />
    </filter>
    <filter id="lightBlur" x="-15%" y="-15%" width="130%" height="130%">
      <feGaussianBlur stdDeviation="10" />
    </filter>
  </defs>
  <rect width="900" height="700" fill="none" />

  <ellipse cx="260" cy="220" rx="240" ry="170" fill="#f3dde2" opacity="0.65" filter="url(#softBlur)" />
  <ellipse cx="640" cy="180" rx="230" ry="160" fill="#f6e6e9" opacity="0.7" filter="url(#softBlur)" />
  <ellipse cx="520" cy="460" rx="260" ry="190" fill="#f1d4db" opacity="0.55" filter="url(#softBlur)" />
  <ellipse cx="220" cy="520" rx="200" ry="140" fill="#f5e1e6" opacity="0.5" filter="url(#lightBlur)" />

  <path d="M160 140 C 260 110, 360 120, 460 170" stroke="#c9a96e" stroke-width="2" fill="none" opacity="0.45" />
  <path d="M320 540 C 430 500, 560 520, 660 560" stroke="#b8955a" stroke-width="1.6" fill="none" opacity="0.4" />
  <path d="M560 120 C 650 80, 760 90, 840 140" stroke="#d4b483" stroke-width="1.4" fill="none" opacity="0.45" />

  <line x1="120" y1="300" x2="210" y2="310" stroke="#c9a96e" stroke-width="1.4" opacity="0.55" />
  <line x1="680" y1="260" x2="790" y2="270" stroke="#d4b483" stroke-width="1" opacity="0.55" />
  <line x1="380" y1="250" x2="480" y2="260" stroke="#b8955a" stroke-width="1.2" opacity="0.5" />
  <line x1="520" y1="420" x2="610" y2="430" stroke="#c9a96e" stroke-width="1.3" opacity="0.5" />

  <circle cx="210" cy="190" r="4" fill="#d4b483" opacity="0.6" />
  <circle cx="720" cy="210" r="3" fill="#c9a96e" opacity="0.6" />
  <circle cx="620" cy="360" r="5" fill="#d4b483" opacity="0.55" />
  <circle cx="300" cy="420" r="3.5" fill="#c9a96e" opacity="0.6" />
  <circle cx="420" cy="120" r="2.5" fill="#b8955a" opacity="0.6" />

  <path d="M260 320 L266 334 L280 340 L266 346 L260 360 L254 346 L240 340 L254 334 Z" fill="#c9a96e" opacity="0.6" />
  <path d="M700 420 L706 432 L720 438 L706 444 L700 456 L694 444 L680 438 L694 432 Z" fill="#d4b483" opacity="0.6" />
  <path d="M520 220 L525 232 L538 237 L525 242 L520 255 L515 242 L502 237 L515 232 Z" fill="#b8955a" opacity="0.6" />
</svg>
